<svg width="12" height="13" viewBox="0 0 12 13" fill="none" xmlns="http://www.w3.org/2000/svg">
<path fill-rule="evenodd" clip-rule="evenodd" d="M5.81243 0.916138C2.60765 0.916138 0 3.56725 0 6.82571C0 10.0839 2.60765 12.735 5.81243 12.735C9.01722 12.735 11.6249 10.0839 11.6249 6.82571C11.6249 3.56725 9.01722 0.916138 5.81243 0.916138ZM5.81244 11.7818C3.12443 11.7818 0.936522 9.55851 0.936522 6.82571C0.936522 4.09159 3.12443 1.86827 5.81244 1.86827C8.5007 1.86827 10.6876 4.09265 10.6876 6.82571C10.6876 9.55851 8.5007 11.7818 5.81244 11.7818Z" fill="#3CCF8E"/>
<path fill-rule="evenodd" clip-rule="evenodd" d="M7.66518 4.9411L4.9524 7.70016L3.959 6.68995C3.77666 6.50456 3.48005 6.50456 3.2977 6.68995C3.11431 6.87639 3.11431 7.17795 3.2977 7.36333L4.62135 8.71011C4.71292 8.8024 4.83213 8.84908 4.9524 8.84908C5.07161 8.84908 5.19187 8.8024 5.2837 8.71011L8.32753 5.61449C8.51092 5.42804 8.51092 5.12755 8.32753 4.9411C8.14518 4.75572 7.84857 4.75572 7.66518 4.9411Z" fill="#3CCF8E"/>
</svg>
